<?xml version="1.0" standalone="no"?>
<!DOCTYPE svg PUBLIC "-//W3C//DTD SVG 20010904//EN"
 "http://www.w3.org/TR/2001/REC-SVG-20010904/DTD/svg10.dtd">
<svg version="1.0" xmlns="http://www.w3.org/2000/svg"
 width="230.000000pt" height="82.000000pt" viewBox="0 0 230.000000 82.000000"
 preserveAspectRatio="xMidYMid meet">

<g transform="translate(0.000000,82.000000) scale(0.100000,-0.100000)"
fill="#000000" stroke="none">
<path d="M222 692 l-104 -65 4 -161 c4 -171 14 -214 61 -265 77 -84 246 -80
320 8 39 46 48 89 54 256 5 138 4 151 -13 167 -30 26 -197 128 -208 127 -6 0
-58 -30 -114 -67z m123 -64 c32 -38 28 -48 -21 -48 -38 0 -44 3 -44 21 0 19
24 48 40 49 3 0 14 -10 25 -22z m72 -29 c-2 -29 -37 -25 -37 4 0 13 3 27 7 30
10 11 32 -13 30 -34z m-159 3 c3 -18 -2 -22 -22 -22 -19 0 -26 5 -26 19 0 36
43 38 48 3z m210 -10 c2 -7 -6 -12 -17 -12 -21 0 -27 11 -14 24 9 9 26 2 31
-12z m-248 -68 c0 -11 -5 -14 -17 -10 -16 6 -16 6 0 -12 25 -28 22 -52 -8 -52
-16 0 -25 6 -25 15 0 18 16 20 23 3 4 -10 6 -10 6 0 1 7 -6 15 -14 18 -8 4
-15 17 -15 30 0 19 5 24 25 24 16 0 25 -6 25 -16z m40 -29 c0 -25 -4 -45 -10
-45 -5 0 -10 20 -10 45 0 25 5 45 10 45 6 0 10 -20 10 -45z m68 26 c3 -9 -2
-11 -17 -6 -18 5 -21 2 -21 -19 0 -14 4 -26 10 -26 5 0 7 7 4 15 -4 9 0 15 10
15 10 0 16 -9 16 -25 0 -21 -5 -25 -30 -25 -29 0 -30 2 -30 46 0 43 1 45 27
42 14 -2 28 -9 31 -17z m51 -13 l9 -33 7 33 c11 50 35 41 35 -13 0 -42 -19
-66 -21 -27 -1 16 -2 16 -6 0 -6 -25 -22 -22 -33 5 l-9 22 0 -22 c-2 -44 -21
-23 -21 22 0 55 24 63 39 13z m114 25 c2 -5 7 -24 11 -44 6 -34 6 -35 -28 -36
-26 -1 -33 3 -30 16 11 59 16 71 29 71 7 0 16 -3 18 -7z m-283 -163 c0 -5 -4
-10 -10 -10 -5 0 -10 5 -10 10 0 6 5 10 10 10 6 0 10 -4 10 -10z m42 -2 c-9
-9 -15 -9 -24 0 -9 9 -7 12 12 12 19 0 21 -3 12 -12z m68 2 c0 -5 -4 -10 -10
-10 -5 0 -10 5 -10 10 0 6 5 10 10 10 6 0 10 -4 10 -10z m30 0 c0 -5 -5 -10
-11 -10 -5 0 -7 5 -4 10 3 6 8 10 11 10 2 0 4 -4 4 -10z m40 0 c0 -5 -2 -10
-4 -10 -3 0 -8 5 -11 10 -3 6 -1 10 4 10 6 0 11 -4 11 -10z m90 1 c0 -10 -26
-9 -36 2 -4 4 2 7 14 7 12 0 22 -4 22 -9z m30 -1 c0 -5 -2 -10 -4 -10 -3 0 -8
5 -11 10 -3 6 -1 10 4 10 6 0 11 -4 11 -10z m-295 -90 c3 -5 -1 -10 -10 -10
-9 0 -13 5 -10 10 3 6 8 10 10 10 2 0 7 -4 10 -10z m185 -20 c0 -5 -2 -10 -4
-10 -3 0 -8 5 -11 10 -3 6 -1 10 4 10 6 0 11 -4 11 -10z m-20 -54 c0 -3 -4 -8
-10 -11 -5 -3 -10 -1 -10 4 0 6 5 11 10 11 6 0 10 -2 10 -4z"/>
<path d="M471 494 c0 -11 3 -14 6 -6 3 7 2 16 -1 19 -3 4 -6 -2 -5 -13z"/>
<path d="M799 681 c-22 -23 -29 -39 -29 -69 0 -49 20 -75 84 -110 27 -15 54
-34 60 -44 25 -41 -56 -65 -116 -34 l-28 15 0 -38 c0 -45 11 -51 102 -51 46 0
62 5 86 25 36 30 47 75 28 120 -10 24 -30 41 -76 66 -53 28 -61 36 -58 58 3
23 8 26 45 29 23 2 51 -2 63 -8 19 -10 20 -8 20 30 l0 40 -76 0 c-70 0 -78 -2
-105 -29z"/>
<path d="M1050 530 l0 -180 35 0 35 0 0 180 0 180 -35 0 -35 0 0 -180z"/>
<path d="M1274 691 c-116 -72 -123 -252 -12 -322 27 -16 46 -19 109 -17 105 4
110 10 107 117 l-3 86 -67 3 -68 3 0 -36 c0 -32 2 -35 31 -35 29 0 30 -2 27
-37 -3 -35 -6 -38 -35 -41 -46 -5 -92 40 -100 95 -14 105 71 171 172 133 26
-10 26 -9 23 28 l-3 37 -75 3 c-60 2 -81 -2 -106 -17z"/>
<path d="M1540 530 l0 -180 35 0 35 0 1 133 1 132 45 -132 c43 -129 46 -133
73 -133 28 0 30 3 74 138 l45 137 1 -137 0 -138 35 0 35 0 0 181 0 180 -52 -3
-51 -3 -42 -125 -42 -125 -39 125 -40 125 -57 3 -57 3 0 -181z"/>
<path d="M2085 698 c-40 -112 -115 -332 -115 -339 0 -5 17 -9 38 -9 37 0 40 2
51 40 l12 41 61 -3 c60 -3 62 -4 73 -38 10 -30 16 -35 48 -38 20 -2 37 1 37 6
0 5 -25 86 -55 180 l-56 172 -45 0 c-27 0 -46 -5 -49 -12z m85 -200 c0 -5 -18
-8 -40 -8 -22 0 -40 3 -40 8 0 8 27 100 36 122 5 12 44 -96 44 -122z"/>
<path d="M750 281 c-26 -50 -2 -111 45 -111 19 0 24 6 27 35 4 31 1 35 -19 35
-13 0 -23 -4 -23 -10 0 -5 5 -10 10 -10 6 0 10 -7 10 -15 0 -18 -12 -19 -28
-3 -27 27 -7 78 30 78 10 0 18 5 18 10 0 19 -59 11 -70 -9z"/>
<path d="M850 234 c0 -41 4 -63 10 -59 6 3 10 16 10 28 1 21 1 21 15 3 8 -10
16 -24 18 -30 2 -6 8 -8 12 -4 5 5 3 19 -3 33 -9 19 -9 30 0 44 15 25 -4 51
-38 51 -23 0 -24 -3 -24 -66z m40 26 c0 -11 -4 -20 -10 -20 -5 0 -10 9 -10 20
0 11 5 20 10 20 6 0 10 -9 10 -20z"/>
<path d="M949 284 c-7 -9 -13 -31 -13 -49 0 -58 43 -85 78 -49 18 18 21 66 6
95 -13 23 -53 25 -71 3z m49 -16 c15 -15 16 -50 1 -65 -19 -19 -39 -3 -39 31
0 45 14 58 38 34z"/>
<path d="M1052 244 c3 -64 23 -88 56 -68 20 13 31 124 12 124 -5 0 -10 -20
-10 -44 0 -41 -19 -74 -33 -59 -4 3 -7 28 -7 55 0 27 -5 48 -10 48 -7 0 -10
-22 -8 -56z"/>
<path d="M1152 238 c3 -60 19 -83 26 -38 2 11 10 20 17 20 8 0 19 9 25 20 16
31 -4 60 -41 60 l-30 0 3 -62z m48 22 c0 -11 -4 -20 -10 -20 -5 0 -10 9 -10
20 0 11 5 20 10 20 6 0 10 -9 10 -20z"/>
<path d="M1290 281 c-25 -48 -2 -111 39 -111 40 0 63 66 37 105 -20 30 -61 33
-76 6z m58 -41 c4 -36 -14 -56 -35 -38 -16 13 -17 50 -1 66 19 19 33 9 36 -28z"/>
<path d="M1392 238 c3 -60 19 -83 26 -38 2 11 10 20 18 20 8 0 14 5 14 10 0 6
-7 10 -15 10 -8 0 -15 9 -15 20 0 11 7 20 15 20 8 0 15 5 15 10 0 6 -14 10
-30 10 l-31 0 3 -62z"/>
<path d="M1510 235 c0 -37 4 -65 10 -65 6 0 10 28 10 65 0 37 -4 65 -10 65 -6
0 -10 -28 -10 -65z"/>
<path d="M1552 238 c3 -66 23 -85 23 -23 0 46 8 44 30 -5 10 -22 22 -40 27
-40 4 0 8 29 8 65 0 37 -4 65 -10 65 -5 0 -10 -17 -10 -37 l-1 -38 -20 38
c-31 60 -51 49 -47 -25z"/>
<path d="M1670 280 c-9 -17 -6 -25 15 -46 26 -25 25 -50 -1 -40 -8 3 -14 -1
-14 -10 0 -11 8 -14 28 -12 36 4 44 50 13 70 -27 16 -27 38 -1 38 11 0 20 5
20 10 0 19 -49 10 -60 -10z"/>
<path d="M1740 290 c0 -5 7 -10 15 -10 12 0 15 -13 15 -55 0 -30 5 -55 10 -55
6 0 10 25 10 55 0 42 3 55 15 55 8 0 15 5 15 10 0 6 -18 10 -40 10 -22 0 -40
-4 -40 -10z"/>
<path d="M1840 235 c0 -37 4 -65 10 -65 6 0 10 28 10 65 0 37 -4 65 -10 65 -6
0 -10 -28 -10 -65z"/>
<path d="M1870 290 c0 -5 7 -10 15 -10 12 0 15 -13 15 -55 0 -30 5 -55 10 -55
6 0 10 23 10 50 0 36 4 52 15 56 28 11 15 24 -25 24 -22 0 -40 -4 -40 -10z"/>
<path d="M1972 244 c3 -64 23 -88 56 -68 20 13 31 124 12 124 -5 0 -10 -20
-10 -44 0 -41 -19 -74 -33 -59 -4 3 -7 28 -7 55 0 27 -5 48 -10 48 -7 0 -10
-22 -8 -56z"/>
<path d="M2060 290 c0 -5 7 -10 14 -10 11 0 16 -15 18 -52 4 -64 23 -62 24 1
0 25 6 47 12 49 27 9 9 22 -28 22 -22 0 -40 -4 -40 -10z"/>
<path d="M2160 235 l0 -65 30 0 c17 0 30 5 30 10 0 6 -6 10 -14 10 -23 0 -31
22 -13 35 21 15 22 25 2 25 -8 0 -15 7 -15 15 0 8 9 15 20 15 11 0 20 5 20 10
0 6 -13 10 -30 10 l-30 0 0 -65z"/>
<path d="M2237 293 c-16 -15 -6 -52 18 -67 28 -19 24 -41 -6 -33 -12 3 -19 0
-19 -9 0 -17 41 -19 58 -2 19 19 14 35 -15 63 l-28 25 23 6 c12 4 22 10 22 15
0 10 -43 12 -53 2z"/>
</g>
</svg>
